<svg width="120" height="120" viewBox="0 0 120 120" fill="none" xmlns="http://www.w3.org/2000/svg">
  <!-- Globe icon without text - centered in 120x120 viewBox -->
  <defs>
    <linearGradient id="globeGradient" x1="0%" y1="0%" x2="100%" y2="100%">
      <stop offset="0%" style="stop-color:#2563eb;stop-opacity:1" />
      <stop offset="100%" style="stop-color:#059669;stop-opacity:1" />
    </linearGradient>
    <linearGradient id="ringGradient" x1="0%" y1="0%" x2="100%" y2="100%">
      <stop offset="0%" style="stop-color:#3b82f6;stop-opacity:0.8" />
      <stop offset="100%" style="stop-color:#10b981;stop-opacity:0.8" />
    </linearGradient>
    <radialGradient id="glowGradient" cx="50%" cy="50%">
      <stop offset="0%" style="stop-color:#3b82f6;stop-opacity:0.3" />
      <stop offset="100%" style="stop-color:#3b82f6;stop-opacity:0" />
    </radialGradient>
  </defs>

  <!-- Glow effect -->
  <circle cx="60" cy="60" r="45" fill="url(#glowGradient)" opacity="0.5"/>

  <!-- Main globe sphere -->
  <circle cx="60" cy="60" r="35" fill="url(#globeGradient)"/>

  <!-- Orbital rings -->
  <ellipse cx="60" cy="60" rx="48" ry="18" fill="none" stroke="url(#ringGradient)" stroke-width="2.5" opacity="0.6"/>
  <ellipse cx="60" cy="60" rx="18" ry="48" fill="none" stroke="url(#ringGradient)" stroke-width="2.5" opacity="0.6"/>

  <!-- Grid lines on globe -->
  <path d="M 60 25 Q 60 60 60 95" stroke="white" stroke-width="1" opacity="0.3" fill="none"/>
  <path d="M 40 60 Q 60 60 80 60" stroke="white" stroke-width="1" opacity="0.3" fill="none"/>
  <ellipse cx="60" cy="60" rx="35" ry="17" fill="none" stroke="white" stroke-width="1" opacity="0.3"/>

  <!-- Connection nodes -->
  <circle cx="60" cy="25" r="3" fill="#3b82f6"/>
  <circle cx="88" cy="42" r="3" fill="#10b981"/>
  <circle cx="88" cy="78" r="3" fill="#3b82f6"/>
  <circle cx="60" cy="95" r="3" fill="#059669"/>
  <circle cx="32" cy="78" r="3" fill="#10b981"/>
  <circle cx="32" cy="42" r="3" fill="#3b82f6"/>

  <!-- Connection lines between nodes (subtle) -->
  <line x1="60" y1="25" x2="88" y2="42" stroke="#3b82f6" stroke-width="1" opacity="0.2"/>
  <line x1="88" y1="42" x2="88" y2="78" stroke="#10b981" stroke-width="1" opacity="0.2"/>
  <line x1="88" y1="78" x2="60" y2="95" stroke="#059669" stroke-width="1" opacity="0.2"/>
  <line x1="60" y1="95" x2="32" y2="78" stroke="#10b981" stroke-width="1" opacity="0.2"/>
  <line x1="32" y1="78" x2="32" y2="42" stroke="#3b82f6" stroke-width="1" opacity="0.2"/>
  <line x1="32" y1="42" x2="60" y2="25" stroke="#2563eb" stroke-width="1" opacity="0.2"/>
</svg>
